HIERARCHY
ROOT joint_Root
{
	OFFSET 0.0 0.0 0.0
	CHANNELS 6 Xposition Yposition Zposition Zrotation Xrotation Yrotation 
	JOINT Hips
	{
		OFFSET 4.5925 91.4895 -427.239
		CHANNELS 6 Xposition Yposition Zposition Zrotation Xrotation Yrotation 
		JOINT Spine
		{
			OFFSET 15.7357 0.0 0.0
			CHANNELS 6 Xposition Yposition Zposition Zrotation Xrotation Yrotation 
			JOINT Chest
			{
				OFFSET 8.98455 -0.406207 0.0
				CHANNELS 6 Xposition Yposition Zposition Zrotation Xrotation Yrotation 
				JOINT Neck
				{
					OFFSET 16.3773 0.0 0.0
					CHANNELS 6 Xposition Yposition Zposition Zrotation Xrotation Yrotation 
					JOINT Head
					{
						OFFSET 6.45672 0.0 0.0
						CHANNELS 6 Xposition Yposition Zposition Zrotation Xrotation Yrotation 
						End Site
						{
							OFFSET 0.0 0.0 0.0
						}
					}
				}
				JOINT Shoulder_L
				{
					OFFSET 12.9942 -0.242716 4.98039
					CHANNELS 6 Xposition Yposition Zposition Zrotation Xrotation Yrotation 
					JOINT UpperArm_L
					{
						OFFSET 5.34809 0.0 0.0
						CHANNELS 6 Xposition Yposition Zposition Zrotation Xrotation Yrotation 
						JOINT LowerArm_L
						{
							OFFSET 24.3286 1.87007e-05 0.0
							CHANNELS 6 Xposition Yposition Zposition Zrotation Xrotation Yrotation 
							JOINT Hand_L
							{
								OFFSET 22.2916 0.0 0.0
								CHANNELS 6 Xposition Yposition Zposition Zrotation Xrotation Yrotation 
								End Site
								{
									OFFSET 0.0 0.0 0.0
								}
							}
						}
					}
				}
				JOINT Shoulder_R
				{
					OFFSET 12.9945 -0.242716 -4.98039
					CHANNELS 6 Xposition Yposition Zposition Zrotation Xrotation Yrotation 
					JOINT UpperArm_R
					{
						OFFSET -5.34813 0.0 0.0
						CHANNELS 6 Xposition Yposition Zposition Zrotation Xrotation Yrotation 
						JOINT LowerArm_R
						{
							OFFSET -24.3289 0.000322201 0.0
							CHANNELS 6 Xposition Yposition Zposition Zrotation Xrotation Yrotation 
							JOINT Hand_R
							{
								OFFSET -22.2915 -0.000108084 0.0
								CHANNELS 6 Xposition Yposition Zposition Zrotation Xrotation Yrotation 
								End Site
								{
									OFFSET 0.0 0.0 0.0
								}
							}
						}
					}
				}
			}
		}
		JOINT UpperLeg_L
		{
			OFFSET -2.19248 -6.46944 0.0
			CHANNELS 6 Xposition Yposition Zposition Zrotation Xrotation Yrotation 
			JOINT LowerLeg_L
			{
				OFFSET 39.0811 0.0 -1.23785e-05
				CHANNELS 6 Xposition Yposition Zposition Zrotation Xrotation Yrotation 
				JOINT Foot_L
				{
					OFFSET 40.9854 0.0 -1.26872e-05
					CHANNELS 6 Xposition Yposition Zposition Zrotation Xrotation Yrotation 
					JOINT Toes_L
					{
						OFFSET 11.7543 0.0 0.0
						CHANNELS 6 Xposition Yposition Zposition Zrotation Xrotation Yrotation 
						End Site
						{
							OFFSET 0.0 0.0 0.0
						}
					}
				}
			}
		}
		JOINT UpperLeg_R
		{
			OFFSET -2.19251 6.46944 0.0
			CHANNELS 6 Xposition Yposition Zposition Zrotation Xrotation Yrotation 
			JOINT LowerLeg_R
			{
				OFFSET -39.0811 -0.00228153 -0.0401928
				CHANNELS 6 Xposition Yposition Zposition Zrotation Xrotation Yrotation 
				JOINT Foot_R
				{
					OFFSET -40.9854 0.0 0.0
					CHANNELS 6 Xposition Yposition Zposition Zrotation Xrotation Yrotation 
					JOINT Toes_R
					{
						OFFSET -11.7543 0.0 0.0
						CHANNELS 6 Xposition Yposition Zposition Zrotation Xrotation Yrotation 
						End Site
						{
							OFFSET 0.0 0.0 0.0
						}
					}
				}
			}
		}
	}
}
MOTION
Frames:	4
Frame Time:	0.0333333
0.000000 0.000000 0.000000 0.000000 0.000000 -0.000000 141.538000 92.533300 137.110000 96.676500 -6.018990 4.513110 15.735700 0.000005 -0.000001 75.479500 83.896600 -74.756200 8.984550 -0.406207 -0.000000 4.075650 -3.079290 1.554820 16.377300 -0.000001 -0.000001 1.032600 -14.501700 3.310190 6.456720 -0.000001 -0.000000 -0.821057 -17.941400 8.431230 12.994200 -0.242716 4.980390 -90.637100 2.410450 -75.190300 5.348090 -0.000007 -0.000001 -52.382300 32.663400 -38.892900 24.328600 0.000019 0.000005 8.733640 18.710500 -25.590900 22.291600 -0.000001 0.000005 12.305800 5.177480 3.278020 12.994500 -0.242716 -4.980390 88.250000 8.920290 -78.853400 -5.348130 -0.000001 -0.000004 -65.096800 20.821000 -4.393090 -24.328900 0.000322 -0.000009 0.872731 4.702020 -10.540500 -22.291500 -0.000108 -0.000004 14.175100 5.307160 -0.130250 -2.192480 -6.469440 -0.000000 -173.941000 -5.163430 -2.647170 39.081100 -0.000007 -0.000012 -0.012633 0.022033 29.829200 40.985400 -0.000006 -0.000013 -3.235010 21.435600 -52.205300 11.754300 -0.000000 0.000003 -0.065709 -0.349909 -31.049200 -2.192510 6.469440 -0.000001 179.678000 31.825500 161.806000 -39.081100 -0.002282 -0.040193 0.118367 -0.129885 41.544500 -40.985400 0.000008 0.000006 7.584560 -3.832600 -61.061000 -11.754300 -0.000006 -0.000006 -0.024859 -0.192854 -24.462800
0.000000 0.000000 0.000000 0.000000 0.000000 -0.000000 139.458000 91.988200 139.585000 96.905200 -4.708980 4.296040 15.735700 0.000005 -0.000001 73.189000 83.900300 -72.508800 8.984550 -0.406207 -0.000000 3.939620 -3.545910 1.481370 16.377300 -0.000001 -0.000001 0.787328 -14.619600 3.169410 6.456720 -0.000001 -0.000000 -0.860208 -18.060600 9.459340 12.994200 -0.242716 4.980390 -90.415800 1.560410 -75.074800 5.348090 -0.000007 -0.000001 -49.843500 31.359600 -45.222800 24.328600 0.000019 0.000005 10.073000 16.600400 -31.876900 22.291600 -0.000001 0.000005 13.181600 5.191050 2.944350 12.994500 -0.242716 -4.980390 88.103700 8.987510 -78.034200 -5.348130 -0.000001 -0.000004 -64.101500 19.645600 -0.749044 -24.328900 0.000322 -0.000009 0.949191 4.690270 -11.466100 -22.291500 -0.000108 -0.000004 14.152700 5.322770 -0.574867 -2.192480 -6.469440 -0.000000 -172.634000 -4.806350 -1.792190 39.081100 -0.000007 -0.000012 -0.004740 0.008047 30.500300 40.985400 -0.000006 -0.000013 -3.759830 22.613500 -52.079400 11.754300 -0.000000 0.000003 -0.082957 -0.400147 -33.202800 -2.192510 6.469440 -0.000001 -178.746000 33.648000 160.231000 -39.081100 -0.002282 -0.040193 0.068514 -0.100035 33.102600 -40.985400 0.000008 0.000006 7.807630 -8.601350 -61.131100 -11.754300 -0.000006 -0.000006 -0.024027 -0.188654 -24.289300
0.000000 0.000000 0.000000 0.000000 0.000000 -0.000000 137.129000 91.086900 142.268000 97.334700 -3.814250 4.546620 15.735700 0.000005 -0.000001 71.129200 83.757200 -70.574700 8.984550 -0.406207 -0.000000 4.076720 -4.050100 1.252250 16.377300 -0.000001 -0.000001 0.594723 -14.462200 2.836850 6.456720 -0.000001 -0.000000 -1.216840 -17.861600 10.197500 12.994200 -0.242716 4.980390 -90.164500 0.602074 -74.716200 5.348090 -0.000007 -0.000001 -48.649500 29.466100 -49.848700 24.328600 0.000019 0.000005 10.978600 14.302000 -38.145100 22.291600 -0.000001 0.000005 14.517100 5.215810 2.322270 12.994500 -0.242716 -4.980390 88.032800 8.814200 -77.365300 -5.348130 -0.000001 -0.000004 -63.548500 18.788000 2.051500 -24.328900 0.000322 -0.000009 1.105440 5.273630 -11.867200 -22.291500 -0.000108 -0.000004 14.527500 5.324750 -0.632718 -2.192480 -6.469440 -0.000000 -171.436000 -3.942570 -0.886055 39.081100 -0.000007 -0.000012 0.002145 -0.003391 32.302000 40.985400 -0.000006 -0.000013 -3.975330 23.087100 -52.434600 11.754300 -0.000000 0.000003 -0.107284 -0.462292 -35.908700 -2.192510 6.469440 -0.000001 -176.574000 37.947100 157.581000 -39.081100 -0.002282 -0.040193 0.043314 -0.073960 28.411000 -40.985400 0.000008 0.000006 10.313300 -15.494500 -59.419000 -11.754300 -0.000006 -0.000006 -0.022496 -0.180738 -23.962400
0.000000 0.000000 0.000000 0.000000 0.000000 -0.000000 134.459000 89.924800 145.271000 97.452300 -3.703600 5.142180 15.735700 0.000005 -0.000001 70.511500 83.562500 -69.997100 8.984550 -0.406207 -0.000000 4.401020 -4.303290 1.193460 16.377300 -0.000001 -0.000001 0.663627 -14.046600 2.472070 6.456720 -0.000001 -0.000000 -1.764620 -17.482700 10.487500 12.994200 -0.242716 4.980390 -89.986400 -0.048587 -74.325600 5.348090 -0.000007 -0.000001 -48.170600 27.370100 -52.858400 24.328600 0.000019 0.000005 11.756100 12.284700 -44.367800 22.291600 -0.000001 0.000005 15.839400 5.226970 2.035150 12.994500 -0.242716 -4.980390 88.003400 8.729680 -77.063600 -5.348130 -0.000001 -0.000004 -63.190400 17.591300 3.965740 -24.328900 0.000322 -0.000009 1.141470 5.758460 -11.242600 -22.291500 -0.000108 -0.000004 14.999200 5.320410 -0.508021 -2.192480 -6.469440 -0.000000 -169.585000 -3.599570 -0.057567 39.081100 -0.000007 -0.000012 0.015755 -0.022207 35.352700 40.985400 -0.000006 -0.000013 -4.212080 23.564400 -52.139000 11.754300 -0.000000 0.000003 -0.152064 -0.558810 -40.223500 -2.192510 6.469440 -0.000001 -173.792000 40.838100 154.135000 -39.081100 -0.002282 -0.040193 0.062856 -0.096605 31.654000 -40.985400 0.000008 0.000006 20.354700 -17.131800 -57.572500 -11.754300 -0.000006 -0.000006 -0.010095 -0.104345 -20.824600
